<?xml version="1.0" encoding="utf-8"?>
<!-- Generator: Adobe Illustrator 19.1.0, SVG Export Plug-In . SVG Version: 6.00 Build 0)  -->
<svg version="1.1" id="Calque_1" xmlns="http://www.w3.org/2000/svg" xmlns:xlink="http://www.w3.org/1999/xlink" x="0px" y="0px"
	 viewBox="0 0 1024 1024" style="enable-background:new 0 0 1024 1024;" xml:space="preserve">
<style type="text/css">
	.st0{fill:#FFFFFF;}
	.st1{opacity:0.65;}
	.st2{fill:none;stroke:#EDEDED;stroke-width:4;stroke-miterlimit:10;}
	.st3{fill:#3E6AB2;}
	.st4{fill:url(#SVGID_1_);}
	.st5{fill:url(#SVGID_2_);}
	.st6{fill:url(#SVGID_3_);}
	.st7{fill:url(#SVGID_4_);}
	.st8{fill:url(#SVGID_5_);}
	.st9{fill:url(#SVGID_6_);}
	.st10{fill:url(#SVGID_7_);}
	.st11{fill:url(#SVGID_8_);}
	.st12{fill:url(#SVGID_9_);}
	.st13{fill:url(#SVGID_10_);}
	.st14{fill:url(#SVGID_11_);}
	.st15{fill:url(#SVGID_12_);}
	.st16{fill:#24354F;}
	.st17{font-family:'Lobster';}
	.st18{font-size:145.2003px;}
	.st19{font-size:59.3068px;}
	.st20{letter-spacing:1;}
</style>
<g id="Calque_2">
	<rect class="st0" width="1024" height="1024"/>
</g>
<g id="Calque_1_1_">
	<g class="st1">
		<line class="st2" x1="47.9" y1="14" x2="47.9" y2="1024"/>
		<line class="st2" x1="125.5" y1="14" x2="125.5" y2="1024"/>
		<line class="st2" x1="203.1" y1="14" x2="203.1" y2="1024"/>
		<line class="st2" x1="280.7" y1="14" x2="280.7" y2="1024"/>
		<line class="st2" x1="358.3" y1="14" x2="358.3" y2="1024"/>
		<line class="st2" x1="435.9" y1="14" x2="435.9" y2="1024"/>
		<line class="st2" x1="513.5" y1="14" x2="513.5" y2="1024"/>
		<line class="st2" x1="591.1" y1="14" x2="591.1" y2="1024"/>
		<line class="st2" x1="668.7" y1="14" x2="668.7" y2="1024"/>
		<line class="st2" x1="746.3" y1="14" x2="746.3" y2="1024"/>
		<line class="st2" x1="823.9" y1="14" x2="823.9" y2="1024"/>
		<line class="st2" x1="901.5" y1="14" x2="901.5" y2="1024"/>
		<line class="st2" x1="979.1" y1="14" x2="979.1" y2="1024"/>
	</g>
	<rect x="206" y="692" class="st3" width="385.1" height="138.4"/>
	<rect x="746.9" y="692" class="st3" width="277.1" height="138.4"/>
	<rect x="47.9" y="840.4" class="st3" width="776" height="138.4"/>
	<rect x="356.7" y="395.1" class="st3" width="545" height="138.4"/>
	<rect x="82.4" y="543.5" class="st3" width="586.8" height="138.4"/>
	
		<linearGradient id="SVGID_1_" gradientUnits="userSpaceOnUse" x1="512" y1="1050.5483" x2="512" y2="805.3494" gradientTransform="matrix(1 0 0 -1 0 1024)">
		<stop  offset="0" style="stop-color:#FFFFFF"/>
		<stop  offset="1" style="stop-color:#FFFFFF;stop-opacity:0"/>
	</linearGradient>
	<rect class="st4" width="1024" height="261.3"/>
	<g>
		<g>
			
				<linearGradient id="SVGID_2_" gradientUnits="userSpaceOnUse" x1="107.1143" y1="815.7" x2="981.9727" y2="815.7" gradientTransform="matrix(1 0 0 -1 0 1024)">
				<stop  offset="0" style="stop-color:#FFFFFF"/>
				<stop  offset="1" style="stop-color:#000000"/>
			</linearGradient>
			<path class="st5" d="M174.9,223.7c0-12.3-4.6-18.5-13.8-18.5c-2.1,0-4.3,0.2-6.7,0.5l-11.9,55.6h-20.9l19.7-92.4l21.5-2.8
				l-6.8,32.2h0.9c5.6,0,10.5-2.5,14.6-7.5c4.2-5,6.3-10.4,6.3-16c0-7.1-3.4-11.9-10.3-14.4c-2.5-0.9-5.3-1.3-8.4-1.3
				c-3.1,0-6.2,0.3-9.1,1c-2.9,0.6-5.7,1.6-8.3,2.9c-5.9,2.9-10.6,7-14.1,12.3c-3.5,5.3-5.2,11.7-5.2,19.2c0,3.8,0.6,6.8,1.8,8.9
				c0.2,0.4,0.3,0.7,0.3,1c-7.7,0-12.5-2.4-14.5-7.1c-0.7-1.7-1.1-3.8-1.1-6.2c0-5.1,1.4-9.9,4.3-14.5s6.8-8.6,11.6-12.2
				c10.8-7.8,23.1-11.8,36.7-11.8c10.1,0,17.8,2.2,23,6.7s7.9,9.9,7.9,16.4c0,4.3-1.2,8.6-3.7,12.8s-6.1,7.6-10.8,10.3
				c5.9,1.2,10.2,3.9,13,8.2s4.2,9.3,4.2,15.2c0,3.5-0.5,7.6-1.5,12.4c-2.3,10.7-7.3,19-15,24.9c-4,3-9.2,4.5-15.4,4.5
				c-6.3,0-10.5-1.8-12.8-5.3c-0.9-1.4-1.4-3.3-1.4-5.6s0.6-5.1,1.8-8.3c3.3,3.5,6.4,5.2,9.4,5.2c5.1,0,9-3,11.6-8.9
				C173.8,236.1,174.9,230.3,174.9,223.7z"/>
			
				<linearGradient id="SVGID_3_" gradientUnits="userSpaceOnUse" x1="107.1143" y1="798.55" x2="981.9727" y2="798.55" gradientTransform="matrix(1 0 0 -1 0 1024)">
				<stop  offset="0" style="stop-color:#FFFFFF"/>
				<stop  offset="1" style="stop-color:#000000"/>
			</linearGradient>
			<path class="st6" d="M279.6,235.3c-6.1,17.9-15.9,26.9-29.1,26.9c-8.6,0-13.4-4.6-14.4-13.8c-5.7,9.2-12.8,13.8-21.5,13.8
				c-4.3,0-8-1.4-11.1-4.1c-3-2.7-4.5-7.2-4.5-13.3c0-2.7,0.4-5.9,1.1-9.5l9.9-46.6h21L220.6,238c-0.3,1.5-0.4,2.9-0.4,4.1
				c0,4,1.4,6,4.3,6c5.1,0,9-4.3,11.6-12.8l9.9-46.6h20.9L256.4,238c-0.4,1.7-0.6,3.4-0.6,5.1c0,3.3,2,5,6,5
				c5.4,0,9.4-4.3,11.8-12.8H279.6z"/>
			
				<linearGradient id="SVGID_4_" gradientUnits="userSpaceOnUse" x1="107.1143" y1="800.7" x2="981.9727" y2="800.7" gradientTransform="matrix(1 0 0 -1 0 1024)">
				<stop  offset="0" style="stop-color:#FFFFFF"/>
				<stop  offset="1" style="stop-color:#000000"/>
			</linearGradient>
			<path class="st7" d="M335.1,235.3c-6,7-13.4,13-22.2,18.2c-5.5,5.8-13.1,8.7-22.8,8.7c-6.8,0-12-1.9-15.7-5.6
				c-3.7-3.7-5.5-7.7-5.5-11.8s0.8-7.4,2.4-9.7s3.4-3.9,5.3-4.9c6.8-12.2,12.8-26.5,17.9-43l21.5-2.8c0.4,9.1,0.8,16.7,1.1,22.8
				l1.8,23c0.2,2.3,0.3,4.5,0.3,6.7s-0.2,4.2-0.6,5.8c4.3-2.5,7.7-4.9,10.4-7.3h6.1V235.3z M284.1,250.7c9.3,0,13.9-4.5,13.9-13.5
				c0-2.5-0.2-5.5-0.6-8.9l-0.9-8.3c-0.5-5.3-1-11-1.3-17.2c-2.5,7.9-6.4,17.1-11.8,27.4c2.2,1,3.3,2.6,3.3,4.6s-0.6,3.8-1.7,5.3
				c-1.2,1.5-2.7,2.2-4.7,2.2s-3.2-0.6-3.9-1.9C276.6,247.3,279.1,250.7,284.1,250.7z"/>
			
				<linearGradient id="SVGID_5_" gradientUnits="userSpaceOnUse" x1="107.1143" y1="814" x2="981.9727" y2="814" gradientTransform="matrix(1 0 0 -1 0 1024)">
				<stop  offset="0" style="stop-color:#FFFFFF"/>
				<stop  offset="1" style="stop-color:#000000"/>
			</linearGradient>
			<path class="st8" d="M373.8,235.3c-6.2,17.9-16.7,26.9-31.3,26.9c-3.8,0-7.3-1.4-10.3-4.1c-3-2.7-4.5-7.2-4.5-13.3
				c0-2.7,0.4-5.9,1.1-9.5l9.9-46.6h20.9L349.3,238c-0.4,1.7-0.6,3.5-0.6,5.2c0,3.3,2,4.9,5.9,4.9c2.8,0,5.5-1.2,7.9-3.7
				s4.2-5.5,5.2-9.1L373.8,235.3L373.8,235.3z M364.8,169.4c0,3.2-1.1,5.9-3.4,8.1c-2.3,2.2-5,3.3-8.2,3.3s-5.9-1.1-8.1-3.3
				s-3.3-4.9-3.3-8.1c0-3.2,1.1-5.9,3.3-8.2c2.2-2.3,4.9-3.4,8.2-3.4c3.2,0,6,1.1,8.3,3.4C363.7,163.5,364.8,166.2,364.8,169.4z"/>
			
				<linearGradient id="SVGID_6_" gradientUnits="userSpaceOnUse" x1="107.1143" y1="798.8" x2="981.9727" y2="798.8" gradientTransform="matrix(1 0 0 -1 0 1024)">
				<stop  offset="0" style="stop-color:#FFFFFF"/>
				<stop  offset="1" style="stop-color:#000000"/>
			</linearGradient>
			<path class="st9" d="M423,241.9c0,4.2,1.8,6.2,5.3,6.2c3.3,0,5.8-1,7.5-3.1s3.5-5.3,5.2-9.7h6.1c-5.6,16.3-13.2,25.2-22.8,26.6
				c-1.5,0.2-3.4,0.3-5.6,0.3s-4.4-0.5-6.6-1.4c-6.1-2.6-9.1-7.5-9.1-15c0-4,1.1-10.3,3.3-19c2.2-8.7,3.3-14.7,3.3-18
				c0-5-1.7-7.4-5.2-7.4s-6.6,2.8-9.4,8.3c-0.8,1.6-1.5,3.3-2,5.1l-9.9,46.6h-20.9l15.4-72.6h20.9l-1.6,7.5
				c4.7-5.4,10.4-8.1,16.9-8.1c4.6,0,8.5,1.3,11.6,3.8c3.1,2.6,4.6,6.3,4.6,11.3s-0.8,10.7-2.4,17l-3.5,14
				C423.4,237.4,423,239.9,423,241.9z"/>
			
				<linearGradient id="SVGID_7_" gradientUnits="userSpaceOnUse" x1="107.1143" y1="799.2" x2="981.9727" y2="799.2" gradientTransform="matrix(1 0 0 -1 0 1024)">
				<stop  offset="0" style="stop-color:#FFFFFF"/>
				<stop  offset="1" style="stop-color:#000000"/>
			</linearGradient>
			<path class="st10" d="M501.7,235.3c-10.9,17.9-24.2,26.9-39.9,26.9c-6.9,0-12.4-1.8-16.5-5.4s-6.2-9.5-6.2-17.7
				c0-11.1,2.8-21.8,8.4-32.1c4.3-7.9,10.2-13.5,17.6-16.9c3.8-1.8,7.8-2.7,11.9-2.7c6.7,0,11.3,1.3,13.7,3.8
				c2.4,2.5,3.6,5.9,3.6,10.1c0,8.3-3.3,15.3-10,21.1s-14.5,9-23.4,9.5c-0.2,2.7-0.4,4.7-0.4,5.8c0,5,0.9,8.2,2.6,9.8
				s4.2,2.4,7.4,2.4c5.6,0,10.3-1.2,14.1-3.7c3.8-2.5,7.8-6.1,12.1-11L501.7,235.3L501.7,235.3z M483.2,200.3c0-3.5-1.2-5.2-3.6-5.2
				c-3.5,0.1-7,3.2-10.3,9.4s-5.7,13-7.2,20.5c5.6-0.4,10.5-3,14.7-7.8C481,212.4,483.2,206.7,483.2,200.3z"/>
			
				<linearGradient id="SVGID_8_" gradientUnits="userSpaceOnUse" x1="107.1143" y1="800.7" x2="981.9727" y2="800.7" gradientTransform="matrix(1 0 0 -1 0 1024)">
				<stop  offset="0" style="stop-color:#FFFFFF"/>
				<stop  offset="1" style="stop-color:#000000"/>
			</linearGradient>
			<path class="st11" d="M558.3,235.3c-6,7-13.4,13-22.2,18.2c-5.5,5.8-13.1,8.7-22.8,8.7c-6.8,0-12-1.9-15.7-5.6
				c-3.7-3.7-5.5-7.7-5.5-11.8s0.8-7.4,2.4-9.7s3.4-3.9,5.3-4.9c6.8-12.2,12.8-26.5,17.9-43l21.5-2.8c0.4,9.1,0.8,16.7,1.1,22.8
				l1.8,23c0.2,2.3,0.3,4.5,0.3,6.7s-0.2,4.2-0.6,5.8c4.3-2.5,7.7-4.9,10.4-7.3h6.1V235.3z M507.4,250.7c9.3,0,13.9-4.5,13.9-13.5
				c0-2.5-0.2-5.5-0.6-8.9l-0.9-8.3c-0.5-5.3-1-11-1.3-17.2c-2.5,7.9-6.4,17.1-11.8,27.4c2.2,1,3.3,2.6,3.3,4.6s-0.6,3.8-1.7,5.3
				c-1.2,1.5-2.7,2.2-4.7,2.2s-3.2-0.6-3.9-1.9C499.8,247.3,502.3,250.7,507.4,250.7z"/>
			
				<linearGradient id="SVGID_9_" gradientUnits="userSpaceOnUse" x1="107.1143" y1="800.85" x2="981.9727" y2="800.85" gradientTransform="matrix(1 0 0 -1 0 1024)">
				<stop  offset="0" style="stop-color:#FFFFFF"/>
				<stop  offset="1" style="stop-color:#000000"/>
			</linearGradient>
			<path class="st12" d="M594.6,184.2c0.4,9.1,0.8,16.7,1.1,22.8l1.8,23c0.2,2.3,0.3,4.8,0.3,7.6s-0.4,5.4-1.3,7.9
				c-0.9,2.5-2.1,4.6-3.6,6.5c-2.8,3.5-6.4,6.1-10.8,7.7s-8.6,2.4-12.8,2.4c-7.2,0-12.6-1.9-16.3-5.6c-3.7-3.7-5.5-7.7-5.5-11.8
				s0.8-7.4,2.4-9.7c1.6-2.3,3.4-3.9,5.3-4.9c6.8-12.2,12.8-26.5,17.9-43L594.6,184.2z M562.9,250.7c9.3,0,13.9-4.5,13.9-13.5
				c0-2.5-0.2-5.5-0.6-8.9l-0.9-8.3c-0.5-5.3-1-11-1.3-17.2c-2.5,7.9-6.4,17.1-11.8,27.4c2.2,1,3.3,2.6,3.3,4.6s-0.6,3.8-1.7,5.3
				s-2.7,2.2-4.7,2.2s-3.3-0.6-3.9-1.9C555.3,247.3,557.8,250.7,562.9,250.7z"/>
			
				<linearGradient id="SVGID_10_" gradientUnits="userSpaceOnUse" x1="107.1143" y1="816.55" x2="981.9727" y2="816.55" gradientTransform="matrix(1 0 0 -1 0 1024)">
				<stop  offset="0" style="stop-color:#FFFFFF"/>
				<stop  offset="1" style="stop-color:#000000"/>
			</linearGradient>
			<path class="st13" d="M734,152.8c1,3.4,1.6,6.6,1.6,9.6c0,5.2-1.8,9.1-5.5,11.7c-2.7,1.9-5.8,2.8-9.3,2.8s-6.8-0.6-10.1-1.8
				l-17.5-6.3l-19.9,92.5h-20.8l20.8-97.4c-2.1-0.3-4.4-0.4-6.9-0.4c-6.6,0-11.9,2.4-16.1,7.1c-4.2,4.7-6.2,12.7-6.2,24
				c0,3.9,0.5,6.9,1.6,8.9c0.2,0.4,0.4,0.7,0.4,1c-7.8,0-12.6-2.5-14.5-7.4c-0.7-1.8-1-4.6-1-8.3s0.9-7.9,2.7-12.4s4.7-8.6,8.6-12.1
				c8.7-7.8,21.5-11.6,38.2-11.6c1.5,0,3.6,0.1,6.3,0.4l9.1,0.8c8.6,0.8,16.4,1.2,23.2,1.2S730.6,154.2,734,152.8z M743.7,235.3
				c-6.2,17.9-16.7,26.9-31.3,26.9c-3.8,0-7.2-1.4-10.2-4.1c-3-2.7-4.5-7.2-4.5-13.3c0-2.7,0.4-5.9,1.1-9.5l9.9-46.6h20.9L719.2,238
				c-0.4,1.7-0.6,3.5-0.6,5.2c0,3.3,2,4.9,5.9,4.9c2.8,0,5.5-1.2,7.9-3.7s4.2-5.5,5.2-9.1L743.7,235.3L743.7,235.3z"/>
			
				<linearGradient id="SVGID_11_" gradientUnits="userSpaceOnUse" x1="107.1143" y1="798.95" x2="981.9727" y2="798.95" gradientTransform="matrix(1 0 0 -1 0 1024)">
				<stop  offset="0" style="stop-color:#FFFFFF"/>
				<stop  offset="1" style="stop-color:#000000"/>
			</linearGradient>
			<path class="st14" d="M827.4,262.1c-12.4,0-18.6-5.5-18.6-16.4c0-4,1.1-10.3,3.3-19s3.3-14.7,3.3-18c0-5-1.7-7.4-5.2-7.4
				s-6.6,2.8-9.4,8.3c-0.8,1.6-1.5,3.3-2,5.1l-9.9,46.6H768l10.6-50.1c0.3-1.1,0.4-2.3,0.4-3.6c0-4.3-1.4-6.4-4.3-6.4
				c-2.9,0-5.3,1.3-7.3,4s-3.5,5.8-4.6,9.5l-9.9,46.6H732l15.4-72.6h20.9l-1.6,7.5c4.8-5.5,10.7-8.2,17.7-8.2
				c8.6,0,13.5,4.2,14.9,12.5c5.3-8.2,12.1-12.3,20.2-12.3c4.6,0,8.4,1.3,11.5,3.8c3.1,2.6,4.6,6.3,4.6,11.2s-0.8,10.6-2.4,17
				l-3.4,14.2c-0.8,3.1-1.1,5.6-1.1,7.5c0,4.2,1.8,6.2,5.3,6.2c3.3,0,5.8-1,7.5-3.1s3.5-5.3,5.2-9.7h6.1
				c-3.6,10.7-8.1,18.2-13.6,22.5C835.5,260.7,831.5,262.1,827.4,262.1z"/>
			
				<linearGradient id="SVGID_12_" gradientUnits="userSpaceOnUse" x1="107.1143" y1="799.2" x2="981.9727" y2="799.2" gradientTransform="matrix(1 0 0 -1 0 1024)">
				<stop  offset="0" style="stop-color:#FFFFFF"/>
				<stop  offset="1" style="stop-color:#000000"/>
			</linearGradient>
			<path class="st15" d="M866.2,236.3c0,8,3.1,12.1,9.2,12.1c2.7,0,5.6-0.8,8.8-2.3c3.1-1.6,5.9-3.4,8.2-5.4
				c-2.6,14.3-11,21.5-25.1,21.5c-6.8,0-12.3-1.8-16.4-5.4c-4.1-3.6-6.2-9.5-6.2-17.7c0-11.1,2.8-21.8,8.4-32.1
				c4.3-7.9,10.2-13.5,17.6-16.9c3.8-1.8,7.8-2.7,11.9-2.7c6.7,0,11.3,1.3,13.7,3.8s3.6,5.9,3.6,10.1c0,8.3-3.3,15.4-10,21.1
				c-6.6,5.8-14.5,8.9-23.4,9.5C866.3,233.3,866.2,234.7,866.2,236.3z M888.8,200.3c0-3.5-1.2-5.2-3.6-5.2c-4.6,0.2-9,5.5-13.3,16
				c-1.8,4.5-3.2,9.1-4.3,13.9c5.6-0.2,10.5-2.7,14.8-7.6C886.6,212.6,888.8,206.9,888.8,200.3z"/>
		</g>
		<text transform="matrix(1 0 0 1 107.1143 261.2902)" class="st16 st17 st18">Business Time</text>
	</g>
	<text transform="matrix(1 0 0 1 114.5452 637.3203)" class="st0 st17 st19">12h30-17h00</text>
	<text transform="matrix(1 0 0 1 82.3546 931.3055)" class="st0 st17 st19">12h00-19h00</text>
	<text transform="matrix(1 0 0 1 233.8471 781.313)" class="st0 st17 st19">14h00-16h00</text>
	<text transform="matrix(1 0 0 1 398.5734 485.8278)" class="st0 st17 st19">15h00-15h00</text>
	<text transform="matrix(1 0 0 1 773.8201 781.313)" class="st0 st17 st19">18h00-</text>
	<text transform="matrix(1 0 0 1 931.0201 781.313)" class="st0 st17 st19 st20">1</text>
	<text transform="matrix(1 0 0 1 952.2201 781.313)" class="st0 st17 st19">5h00</text>
</g>
</svg>
